<svg width="648" height="512" viewBox="0 0 648 512" fill="none" xmlns="http://www.w3.org/2000/svg">
<path d="M96.256 503L52.224 144.6H152.064L189.44 454.872H136.704L300.544 144.6H394.24L428.544 454.872H378.88L541.696 144.6H642.048L454.144 503H345.6L313.856 239.32H344.576L205.312 503H96.256Z" fill="#EEEEEE"/>
<path d="M579.158 500.608C562.774 500.608 549.462 495.659 539.222 485.76C528.982 475.52 523.862 462.72 523.862 447.36C523.862 428.587 530.006 413.568 542.294 402.304C554.582 391.04 569.26 385.408 586.326 385.408C602.71 385.408 615.852 390.357 625.75 400.256C635.99 410.155 641.11 422.955 641.11 438.656C641.11 450.944 638.209 461.696 632.406 470.912C626.945 480.128 619.436 487.467 609.878 492.928C600.662 498.048 590.422 500.608 579.158 500.608Z" fill="#EDA200"/>
</svg>
